<svg xmlns="http://www.w3.org/2000/svg" width="1280" height="720" viewBox="0 0 1280 720">
  <defs>
    <linearGradient id="bg" x1="0%" y1="0%" x2="100%" y2="100%">
      <stop offset="0%" style="stop-color:#0F172A"/>
      <stop offset="100%" style="stop-color:#1E293B"/>
    </linearGradient>
    <linearGradient id="accent" x1="0%" y1="0%" x2="100%" y2="0%">
      <stop offset="0%" style="stop-color:#4F46E5"/>
      <stop offset="100%" style="stop-color:#7C3AED"/>
    </linearGradient>
  </defs>
  <rect width="1280" height="720" fill="url(#bg)"/>
  <text x="640" y="60" fill="#F8FAFC" font-family="system-ui" font-size="28" font-weight="700" text-anchor="middle">Assessment Module</text>
  <rect x="40" y="90" width="260" height="580" rx="16" fill="#1E293B" stroke="rgba(255,255,255,0.08)"/>
  <text x="170" y="130" fill="#F8FAFC" font-family="system-ui" font-size="14" font-weight="600" text-anchor="middle">Question Navigator</text>
  <rect x="60" y="150" width="220" height="8" rx="4" fill="rgba(255,255,255,0.08)"/>
  <rect x="60" y="150" width="132" height="8" rx="4" fill="url(#accent)"/>
  <rect x="60" y="180" width="220" height="36" rx="8" fill="rgba(79,70,229,0.2)" stroke="#4F46E5"/>
  <rect x="60" y="230" width="220" height="36" rx="8" fill="rgba(255,255,255,0.03)"/>
  <rect x="60" y="280" width="220" height="36" rx="8" fill="rgba(255,255,255,0.03)"/>
  <rect x="320" y="90" width="920" height="580" rx="16" fill="#1E293B" stroke="rgba(255,255,255,0.08)"/>
  <rect x="340" y="110" width="200" height="28" rx="14" fill="rgba(79,70,229,0.2)"/>
  <text x="440" y="129" fill="#6366F1" font-family="system-ui" font-size="11" font-weight="600" text-anchor="middle">ACTIVE ASSESSMENT</text>
  <rect x="1100" y="110" width="120" height="32" rx="8" fill="rgba(255,255,255,0.05)"/>
  <text x="1160" y="131" fill="#F8FAFC" font-family="monospace" font-size="13" text-anchor="middle">09:42</text>
  <rect x="340" y="160" width="860" height="80" rx="12" fill="rgba(0,0,0,0.2)" stroke-left="4" stroke="#4F46E5"/>
  <text x="360" y="210" fill="#F8FAFC" font-family="system-ui" font-size="16">Solve: 1/2 + 1/3 = ?</text>
  <rect x="340" y="260" width="860" height="48" rx="10" fill="rgba(255,255,255,0.03)" stroke="rgba(255,255,255,0.08)"/>
  <rect x="340" y="320" width="860" height="48" rx="10" fill="rgba(79,70,229,0.08)" stroke="#4F46E5"/>
  <rect x="340" y="380" width="860" height="48" rx="10" fill="rgba(255,255,255,0.03)" stroke="rgba(255,255,255,0.08)"/>
  <rect x="340" y="460" width="860" height="80" rx="10" fill="rgba(0,0,0,0.2)"/>
  <rect x="1020" y="580" width="180" height="44" rx="12" fill="url(#accent)"/>
  <text x="1110" y="608" fill="white" font-family="system-ui" font-size="14" font-weight="600" text-anchor="middle">Submit Answer</text>
</svg>
