<svg xmlns="http://www.w3.org/2000/svg" width="1280" height="720" viewBox="0 0 1280 720">
  <defs>
    <linearGradient id="bg" x1="0%" y1="0%" x2="100%" y2="100%">
      <stop offset="0%" style="stop-color:#0F172A"/>
      <stop offset="100%" style="stop-color:#1E293B"/>
    </linearGradient>
    <linearGradient id="accent" x1="0%" y1="0%" x2="100%" y2="0%">
      <stop offset="0%" style="stop-color:#4F46E5"/>
      <stop offset="100%" style="stop-color:#7C3AED"/>
    </linearGradient>
  </defs>
  <rect width="1280" height="720" fill="url(#bg)"/>
  <text x="640" y="60" fill="#F8FAFC" font-family="system-ui" font-size="28" font-weight="700" text-anchor="middle">Student Dashboard</text>
  <rect x="40" y="90" width="280" height="100" rx="16" fill="#1E293B" stroke="rgba(255,255,255,0.08)"/>
  <rect x="340" y="90" width="280" height="100" rx="16" fill="#1E293B" stroke="rgba(255,255,255,0.08)"/>
  <rect x="640" y="90" width="280" height="100" rx="16" fill="#1E293B" stroke="rgba(255,255,255,0.08)"/>
  <rect x="940" y="90" width="300" height="100" rx="16" fill="#1E293B" stroke="rgba(255,255,255,0.08)"/>
  <text x="180" y="150" fill="#FBBF24" font-family="system-ui" font-size="32" font-weight="800" text-anchor="middle">340</text>
  <text x="480" y="150" fill="#10B981" font-family="system-ui" font-size="32" font-weight="800" text-anchor="middle">68%</text>
  <rect x="40" y="210" width="760" height="460" rx="16" fill="#1E293B" stroke="rgba(255,255,255,0.08)"/>
  <text x="420" y="250" fill="#F8FAFC" font-family="system-ui" font-size="18" font-weight="600" text-anchor="middle">Concept Mastery Map</text>
  <circle cx="420" cy="380" r="30" fill="url(#accent)" opacity="0.8"/>
  <circle cx="280" cy="480" r="25" fill="#10B981" opacity="0.6"/>
  <circle cx="560" cy="480" r="25" fill="#F59E0B" opacity="0.6"/>
  <line x1="420" y1="410" x2="280" y2="455" stroke="rgba(255,255,255,0.15)" stroke-width="2"/>
  <line x1="420" y1="410" x2="560" y2="455" stroke="rgba(255,255,255,0.15)" stroke-width="2"/>
  <rect x="820" y="210" width="420" height="220" rx="16" fill="#1E293B" stroke="rgba(255,255,255,0.08)"/>
  <text x="1030" y="250" fill="#F8FAFC" font-family="system-ui" font-size="16" font-weight="600" text-anchor="middle">AI Recommendations</text>
  <rect x="820" y="450" width="420" height="220" rx="16" fill="#1E293B" stroke="rgba(255,255,255,0.08)"/>
  <text x="1030" y="490" fill="#F8FAFC" font-family="system-ui" font-size="16" font-weight="600" text-anchor="middle">Recent Activity</text>
</svg>
