<svg xmlns="http://www.w3.org/2000/svg" width="1280" height="720" viewBox="0 0 1280 720">
  <defs>
    <linearGradient id="bg" x1="0%" y1="0%" x2="100%" y2="100%">
      <stop offset="0%" style="stop-color:#0F172A"/>
      <stop offset="100%" style="stop-color:#1E293B"/>
    </linearGradient>
    <linearGradient id="accent" x1="0%" y1="0%" x2="100%" y2="0%">
      <stop offset="0%" style="stop-color:#4F46E5"/>
      <stop offset="100%" style="stop-color:#7C3AED"/>
    </linearGradient>
  </defs>
  <rect width="1280" height="720" fill="url(#bg)"/>
  <text x="640" y="60" fill="#F8FAFC" font-family="system-ui" font-size="28" font-weight="700" text-anchor="middle">Teacher Dashboard</text>
  <rect x="40" y="90" width="290" height="90" rx="16" fill="#1E293B" stroke="rgba(255,255,255,0.08)"/>
  <rect x="350" y="90" width="290" height="90" rx="16" fill="#1E293B" stroke="rgba(255,255,255,0.08)"/>
  <rect x="660" y="90" width="290" height="90" rx="16" fill="#1E293B" stroke="rgba(255,255,255,0.08)"/>
  <rect x="970" y="90" width="270" height="90" rx="16" fill="#1E293B" stroke="rgba(255,255,255,0.08)"/>
  <text x="185" y="145" fill="#F8FAFC" font-family="system-ui" font-size="28" font-weight="800" text-anchor="middle">28</text>
  <text x="495" y="145" fill="#10B981" font-family="system-ui" font-size="28" font-weight="800" text-anchor="middle">68%</text>
  <text x="805" y="145" fill="#F59E0B" font-family="system-ui" font-size="28" font-weight="800" text-anchor="middle">2</text>
  <text x="1105" y="145" fill="#EF4444" font-family="system-ui" font-size="28" font-weight="800" text-anchor="middle">3</text>
  <rect x="40" y="200" width="760" height="280" rx="16" fill="#1E293B" stroke="rgba(255,255,255,0.08)"/>
  <text x="420" y="240" fill="#F8FAFC" font-family="system-ui" font-size="16" font-weight="600" text-anchor="middle">Class Performance Trend</text>
  <polyline points="80,420 240,380 400,360 560,340 720,320" fill="none" stroke="#4F46E5" stroke-width="3"/>
  <polyline points="80,440 240,410 400,390 560,370 720,350" fill="none" stroke="#7C3AED" stroke-width="3"/>
  <rect x="820" y="200" width="420" height="280" rx="16" fill="#1E293B" stroke="rgba(255,255,255,0.08)"/>
  <circle cx="1030" cy="340" r="80" fill="none" stroke="rgba(255,255,255,0.08)" stroke-width="20"/>
  <circle cx="1030" cy="340" r="80" fill="none" stroke="#EF4444" stroke-width="20" stroke-dasharray="180 320" transform="rotate(-90 1030 340)"/>
  <rect x="40" y="500" width="600" height="190" rx="16" fill="rgba(79,70,229,0.05)" stroke="#4F46E5" stroke-opacity="0.3"/>
  <text x="340" y="540" fill="#6366F1" font-family="system-ui" font-size="16" font-weight="600" text-anchor="middle">AI Teaching Suggestions</text>
  <rect x="660" y="500" width="580" height="190" rx="16" fill="#1E293B" stroke="rgba(255,255,255,0.08)"/>
  <text x="950" y="540" fill="#F8FAFC" font-family="system-ui" font-size="16" font-weight="600" text-anchor="middle">Export Reports</text>
</svg>
